<svg width="40" height="40" viewBox="0 0 40 40" fill="none" xmlns="http://www.w3.org/2000/svg">
<rect x="5" y="5" width="30" height="30" rx="15" fill="url(#paint0_linear_1_55)"/>
<path fill-rule="evenodd" clip-rule="evenodd" d="M20 28C24.4183 28 28 24.4183 28 20C28 15.5817 24.4183 12 20 12C15.5817 12 12 15.5817 12 20C12 24.4183 15.5817 28 20 28ZM20 14.1334C20 14.1334 22.2325 16.2792 22.2325 20.1861C22.2325 24.0931 20 25.8667 20 25.8667C20 25.8667 26.5116 25.7675 26.3255 20.1861C26.1395 14.6047 20 14.1334 20 14.1334Z" fill="white"/>
<defs>
<linearGradient id="paint0_linear_1_55" x1="5.19339" y1="5" x2="5.19339" y2="34.6132" gradientUnits="userSpaceOnUse">
<stop stop-color="#595761"/>
<stop offset="1" stop-color="#6E7587"/>
</linearGradient>
</defs>
</svg>
