<svg width="40" height="40" viewBox="0 0 40 40" fill="none" xmlns="http://www.w3.org/2000/svg">
<rect x="5" y="5" width="30" height="30" rx="15" fill="url(#paint0_linear_1_95)"/>
<path fill-rule="evenodd" clip-rule="evenodd" d="M15.7701 24.4501L17.8448 23.8486L19.7871 27.4C19.8791 27.5683 20.1208 27.5683 20.2128 27.4L22.1551 23.8486L24.2298 24.4501C24.414 24.5035 24.5844 24.3322 24.53 24.1483L23.9306 22.1222L27.3737 20.2391C27.542 20.1471 27.542 19.9054 27.3737 19.8134L23.8991 17.9131L24.53 15.7805C24.5844 15.5967 24.414 15.4253 24.2298 15.4787L22.0968 16.0972L20.2128 12.6525C20.1208 12.4842 19.8791 12.4842 19.7871 12.6525L17.9031 16.0972L15.7701 15.4787C15.5859 15.4253 15.4155 15.5967 15.4699 15.7805L16.1008 17.9131L12.6262 19.8134C12.4579 19.9054 12.4579 20.1471 12.6262 20.2391L16.0693 22.1222L15.4699 24.1483C15.4155 24.3322 15.5859 24.5035 15.7701 24.4501ZM17.6649 20.2595L19.05 21.017L19.8075 22.4021C19.8995 22.5703 20.1412 22.5703 20.2332 22.4021L20.9907 21.017L22.3758 20.2595C22.544 20.1675 22.544 19.9258 22.3758 19.8338L20.9907 19.0763L20.2332 17.6912C20.1412 17.5229 19.8995 17.5229 19.8075 17.6912L19.05 19.0763L17.6649 19.8338C17.4966 19.9258 17.4966 20.1675 17.6649 20.2595Z" fill="white"/>
<defs>
<linearGradient id="paint0_linear_1_95" x1="5.24622" y1="5" x2="5.24622" y2="34.5076" gradientUnits="userSpaceOnUse">
<stop stop-color="#EC8CE5"/>
<stop offset="1" stop-color="#F3A7E7"/>
</linearGradient>
</defs>
</svg>
