<svg width="40" height="40" viewBox="0 0 40 40" fill="none" xmlns="http://www.w3.org/2000/svg">
<rect x="5" y="5" width="30" height="30" rx="15" fill="url(#paint0_linear_1_51)"/>
<path d="M18.128 16.7231C16.1353 16.9093 12.5113 18.3986 13.0549 22.494C13.5985 26.5895 16.6788 27.1766 19.3967 26.9618C22.1145 26.747 24.2891 23.2387 23.5641 23.7971C22.8392 24.3556 21.2087 24.1694 21.2087 24.1694C23.4539 22.996 24.2416 22.5305 25.0137 21.3771C23.0759 21.9577 22.3452 21.9973 21.2086 21.9356C25.3758 20.6325 26.03 19.1119 27.007 17.6539C23.4688 19.3246 22.2531 19.6565 21.0275 19.5155C26.5263 17.1076 27.9214 15.6608 29 13C24.3136 15.317 20.1207 16.537 18.128 16.7231Z" fill="white"/>
<defs>
<linearGradient id="paint0_linear_1_51" x1="5" y1="5" x2="5" y2="35" gradientUnits="userSpaceOnUse">
<stop stop-color="#90A7DA"/>
<stop offset="1" stop-color="#A6C2F2"/>
</linearGradient>
</defs>
</svg>
