<svg width="40" height="40" viewBox="0 0 40 40" fill="none" xmlns="http://www.w3.org/2000/svg">
<rect x="5" y="5" width="30" height="30" rx="15" fill="url(#paint0_linear_1_91)"/>
<path fill-rule="evenodd" clip-rule="evenodd" d="M20.2064 26.913C20.1379 26.9148 20.069 26.9158 20 26.9158C15.8579 26.9158 12.5 23.5768 12.5 19.4579C12.5 15.339 15.8579 12 20 12C24.1421 12 27.5 15.339 27.5 19.4579C27.5 21.539 26.6427 23.4211 25.2602 24.7739C25.865 24.9837 26.4807 25.1582 26.9606 25.2838C27.2764 25.3664 27.3257 25.7721 27.0255 25.8998C25.7718 26.4331 23.221 27.2731 20.2064 26.913ZM18.9453 18.3931C18.9453 19.0236 18.4206 19.5347 17.7734 19.5347C17.1262 19.5347 16.6016 19.0236 16.6016 18.3931C16.6016 17.9702 16.8375 17.6011 17.1882 17.4038C17.2084 17.9536 17.663 18.3931 18.2208 18.3931H18.9453ZM21.9922 19.5347C21.345 19.5347 20.8203 19.0236 20.8203 18.3931H21.5449C22.1027 18.3931 22.5572 17.9536 22.5774 17.4038C22.9281 17.6011 23.1641 17.9702 23.1641 18.3931C23.1641 19.0236 22.6394 19.5347 21.9922 19.5347Z" fill="white"/>
<defs>
<linearGradient id="paint0_linear_1_91" x1="5.19339" y1="5" x2="5.19339" y2="34.6132" gradientUnits="userSpaceOnUse">
<stop stop-color="#516AAC"/>
<stop offset="1" stop-color="#7773D4"/>
</linearGradient>
</defs>
</svg>
