<svg width="40" height="40" viewBox="0 0 40 40" fill="none" xmlns="http://www.w3.org/2000/svg">
<rect x="5" y="5" width="30" height="30" rx="15" fill="url(#paint0_linear_1_41)"/>
<path fill-rule="evenodd" clip-rule="evenodd" d="M16.6447 27.5C17.353 27.5 17.9742 26.9995 18.3224 26.2477C18.6706 26.9995 19.2917 27.5 20 27.5C20.6456 27.5 21.2189 27.0841 21.5789 26.4411C21.939 27.0841 22.5123 27.5 23.1579 27.5C24.2479 27.5 25.1316 26.3145 25.1316 24.8521C25.1316 24.564 25.0973 24.2866 25.0338 24.0268C26.5485 22.8156 27.5 21.0657 27.5 19.1196C27.5 15.4637 24.1421 12.5 20 12.5C15.8579 12.5 12.5 15.4637 12.5 19.1196C12.5 20.9955 13.384 22.689 14.8044 23.8936C14.7183 24.1908 14.6711 24.5141 14.6711 24.8521C14.6711 26.3145 15.5547 27.5 16.6447 27.5ZM19.9013 22.6117C22.3539 22.6117 24.3421 21.107 24.3421 19.2509C24.3421 17.3948 22.3539 15.8902 19.9013 15.8902C17.4487 15.8902 15.4605 17.3948 15.4605 19.2509C15.4605 21.107 17.4487 22.6117 19.9013 22.6117Z" fill="white"/>
<defs>
<linearGradient id="paint0_linear_1_41" x1="5" y1="5" x2="5" y2="35" gradientUnits="userSpaceOnUse">
<stop stop-color="#A864C7"/>
<stop offset="1" stop-color="#C261D4"/>
</linearGradient>
</defs>
</svg>
